<?xml version="1.0" encoding="UTF-8"?>
<!DOCTYPE svg PUBLIC "-//W3C//DTD SVG 1.1//EN" "http://www.w3.org/Graphics/SVG/1.1/DTD/svg11.dtd">
<svg xmlns="http://www.w3.org/2000/svg" xml:space="preserve" width="34.5802mm" height="38.4624mm" version="1.1" style="shape-rendering:geometricPrecision; text-rendering:geometricPrecision; image-rendering:optimizeQuality; fill-rule:evenodd; clip-rule:evenodd"
viewBox="0 0 85 94"
 xmlns:xlink="http://www.w3.org/1999/xlink">
 <defs>
  <style type="text/css">
   <![CDATA[
    .fil0 {fill:black}
   ]]>
  </style>
 </defs>
 <g id="Layer_x0020_1">
  <metadata id="Layer"/>
  <path class="fil0" d="M37 49l-36 -43c-1,-1 -1,-2 0,-3 2,0 9,-2 15,6l28 30 2 -11c-1,-3 -2,-5 -2,-8 0,-11 9,-20 21,-20 11,0 20,9 20,20 0,11 -9,20 -20,20 -1,0 -2,0 -3,0l-9 7 9 7c1,0 2,0 3,0 11,0 20,9 20,20 0,11 -9,20 -20,20 -12,0 -21,-9 -21,-20 0,-2 1,-5 2,-7l-2 -10 -28 29c-7,7 -9,6 -15,6 -1,-1 -1,-2 0,-3l36 -40zm28 11c-8,0 -15,6 -15,14 0,8 7,15 15,15 8,0 14,-7 14,-15 0,-8 -6,-14 -14,-14zm0 -54c-8,0 -15,6 -15,14 0,8 7,15 15,15 8,0 14,-7 14,-15 0,-8 -6,-14 -14,-14z"/>
  <path class="fil0" d="M71 24c-1,2 -4,3 -6,3 -3,0 -6,-1 -7,-3 -1,-1 -2,-1 -3,-1 -1,1 -1,2 0,3 2,3 6,5 10,5 3,0 7,-2 9,-5 1,-1 1,-2 0,-3 -1,0 -2,0 -3,1z"/>
  <path class="fil0" d="M71 18c2,0 3,-1 3,-3 0,-1 -1,-3 -3,-3 -1,0 -2,2 -2,3 0,2 1,3 2,3z"/>
  <path class="fil0" d="M58 18c1,0 3,-1 3,-3 0,-1 -2,-3 -3,-3 -1,0 -3,2 -3,3 0,2 2,3 3,3z"/>
  <path class="fil0" d="M71 78c-1,2 -4,3 -6,3 -3,0 -6,-1 -7,-3 -1,-1 -2,-1 -3,0 -1,0 -1,2 0,2 2,3 6,5 10,5 3,0 7,-2 9,-5 1,0 1,-2 0,-2 -1,-1 -2,-1 -3,0z"/>
  <path class="fil0" d="M71 72c2,0 3,-1 3,-3 0,-1 -1,-2 -3,-2 -1,0 -2,1 -2,2 0,2 1,3 2,3z"/>
  <path class="fil0" d="M58 72c1,0 3,-1 3,-3 0,-1 -2,-2 -3,-2 -1,0 -3,1 -3,2 0,2 2,3 3,3z"/>
 </g>
</svg>
